<?xml version="1.0" encoding="utf-8"?>
<!-- Generator: Adobe Illustrator 28.0.0, SVG Export Plug-In . SVG Version: 6.00 Build 0)  -->
<svg version="1.1" id="Layer_1" xmlns="http://www.w3.org/2000/svg" xmlns:xlink="http://www.w3.org/1999/xlink" x="0px" y="0px"
	 viewBox="0 0 173.08 171.3" style="enable-background:new 0 0 173.08 171.3;" xml:space="preserve">
<style type="text/css">
	.st0{fill:#FFFFFF;}
</style>
<path class="st0" d="M80.24,49.25c0,0-8.08-8.56-13.44-19.25l-5.21-10.14l-1.49,2.8l1.03,5.59l4.94,9.99l4.25,6.96
	c0,0-9.24-9.35-21.3-25.34l-4.01-2.12l2.12,7.94l7.31,10.02L36.96,23l-1.34,2.57l2.8,5.28l8.96,8.82l-18.01-9.64v3.46l4.02,5.49
	l5.48,4.93l-11.4-3.22l1.45,3.96l9.28,7.64h-9.95l6.04,5.81l4.96,2.8l-5.85,0.56l0.56,3.24l6.58,3.58l6.28,3.24
	c0,0,27.39-1.45,27.73-1.45s12.02-13.98,12.02-13.98L80.24,49.25z"/>
<path class="st0" d="M148.2,18.75c0,0,1.45-2.24,0,4.58c0,0-4.73,14.91-9.8,22.55l-1.71-1.23C136.69,44.65,146.75,14.16,148.2,18.75
	z"/>
<path class="st0" d="M118.36,117.58l6.27-4.14c0,0,7.25,0.17,12.06-10.48l-7.38-24.81L94.18,95.33v8.16l-7.26,17.78l9.07,0.45
	l7.31,1.45l7.56-1.9L118.36,117.58z"/>
<g>
	<g>
		<path d="M107.83,90.38c1.61,0.12,3.23,0.24,4.84,0.36c0.03,0.08,0.05,0.16,0.08,0.25c-0.79,0.21-1.59,0.42-2.38,0.63
			c2.51,0.66,4.99,0.39,7.47-0.17c0.04,0.12,0.09,0.24,0.13,0.36c-1.34,0.52-2.65,1.16-4.03,1.53c-2.85,0.76-5.73,0.73-8.53-0.28
			c-1.29-0.47-2.33-0.24-3.19,0.76c-1.3,1.51-2.69,2.97-3.8,4.61c-2.39,3.54-4.42,7.26-5.18,11.56c-0.62,3.48-0.56,6.74,1.94,9.61
			c1.39,1.59,3.15,2.35,5.13,2.58c3.84,0.46,7.38-0.65,10.8-2.27c2.84-1.34,5.71-2.61,8.58-3.89c0.86-0.39,1.76-0.71,2.68-0.99
			c-3.07,2.32-5.37,5.23-7.15,8.92c1.46,0.31,2.77,0.58,4.09,0.86c2.27,0.47,4.54,0.98,6.83,1.41c1.92,0.36,3.85,0.76,5.79,0.9
			c1.36,0.09,2.19,0.65,2.95,1.71c0.93,1.31,2.11,2.44,3.05,3.74c0.54,0.75,0.84,1.68,1.25,2.53c0.3,0.62,0.85,1.22,0.89,1.85
			c0.11,1.58,1.07,3.04,0.5,4.74c-0.44,1.33-1.33,2.21-2.37,2.97c-0.48,0.35-1.18,0.39-1.8,0.58c1.09-1.01,2.11-1.94,3.22-2.97
			c-1.17-0.73-1.38-1.46-1.16-2.57c0.15-0.72-0.29-1.58-0.56-2.34c-0.33-0.92-0.76-1.79-1.27-2.65c0.41,1.97,0.87,3.91,0.34,5.91
			c-0.03,0.11-0.02,0.22-0.06,0.33c-0.57,1.7-1.58,2.01-3.44,1.05c0.03-0.07,0.06-0.18,0.1-0.19c2.24-0.31,1.77-2.23,1.8-3.51
			c0.04-2.23-0.61-4.4-1.76-6.37c-0.05-0.09-0.13-0.16-0.34-0.4c-1.19,1.08-2.38,2.11-3.51,3.21c-1.58,1.52-1.88,1.53-3.34-0.08
			c-0.23-0.25-0.55-0.41-0.82-0.61c-0.1,0.08-0.2,0.17-0.3,0.25c0.89,1.3,1.75,2.62,2.68,3.89c2.31,3.16,4.38,6.39,3.63,10.61
			c-0.33,1.87-1.78,3.11-3.66,2.98c-0.41-0.03-0.81-0.08-1.25-0.28c0.4-0.07,0.8-0.15,1.2-0.21c1.03-0.16,2.06-1,2.11-1.99
			c0.05-1.06,0.06-2.2-0.26-3.18c-0.59-1.83-1.44-3.59-2.19-5.37c-0.09-0.21-0.26-0.39-0.51-0.55c0.54,2.5,2.14,4.84,0.97,7.52
			c-0.2,0.46-0.53,0.86-0.8,1.28c-0.82-0.29-0.9-0.67-0.86-1.45c0.08-1.56,0-3.18-0.36-4.69c-0.4-1.66-1.17-3.24-1.82-4.84
			c-0.18-0.43-0.5-0.8-0.74-1.17c-1.62,1.08-3.16,2.15-4.75,3.15c-0.94,0.59-2,0.88-3.04,0.24c-0.41-0.25-0.66-0.76-0.99-1.15
			c-0.15-0.18-0.33-0.51-0.47-0.5c-0.24,0.03-0.54,0.21-0.68,0.42c-0.74,1.08-0.3,2.04,0.34,3.02c-0.69-0.5-1.57-0.81-1.63-1.87
			c-0.07-1.21,0.54-2.5,1.6-2.78c0.88-0.23,1.96-0.32,2.76,0c0.94,0.37,1.63,0.25,2.35-0.24c0.84-0.57,1.63-1.22,2.44-1.83
			c-0.03-0.11-0.06-0.23-0.09-0.34c-1.81-0.41-3.61-0.92-5.44-1.23c-4.72-0.8-9.44-1.55-14.17-2.26c-2.95-0.45-4.16-2.37-3.09-5.13
			c0.42-1.09,0.94-2.14,1.4-3.17c-1.17-0.55-2.52,0.89-3.7-0.46c-1.33,0.62-2.84,1.33-4.59,2.15c0.08-0.63,0.11-0.88,0.11-0.88
			c-2.33,0.64-4.68,1.33-7.06,1.93c-1.45,0.37-2.66,1.01-3.6,2.22c-2.85,3.67-6.6,6.36-10.19,9.21c-2.54,2.01-5.16,3.94-7.74,5.89
			c-0.32,0.24-0.66,0.47-1.01,0.68c-1.26,0.74-1.41,0.68-1.92-0.58c-3.22,2.74-6.4,5.58-9.72,8.23c-1.36,1.08-3,1.86-4.59,2.6
			c-1.16,0.54-1.64,0.03-1.35-1.23c0.03-0.13,0.1-0.26,0.26-0.67c-1.98,1.64-3.64,3.24-5.52,4.53c-2.34,1.6-4.78,3.07-7.31,4.35
			c-1.65,0.84-2.03,0.53-2.71-0.98c-2.29,1.44-4.59,2.91-6.91,4.34c-1.47,0.91-2.88,1.98-4.79,1.75c-0.39-0.05-0.87,0.21-1.23,0.44
			c-2.83,1.8-6.02,2.63-9.19,3.51c-1.45,0.4-2.91,0.79-4.39,1.09c-1.07,0.22-2.06-0.03-2.81-0.98c0.61-1.59,2.09-2.27,3.43-2.96
			c8.62-4.48,16.87-9.57,24.92-14.99c8.32-5.6,16.55-11.35,24.77-17.11c5.54-3.89,11.02-7.87,16.47-11.88
			c6.16-4.53,11.99-9.43,17.2-15.06c1.88-2.03,4.08-3.78,6.13-5.65c-0.12-0.07-0.25-0.14-0.37-0.21c-1.26,0.08-2.54,0.34-3.78,0.2
			c-1.46-0.16-2.09-1.13-2.2-2.77c-1.22,0.59-2.38,1.31-3.64,1.73c-1.09,0.35-2.3,0.53-3.44,0.47c-1.84-0.1-2.55-1.18-2.24-3.02
			c0.07-0.4,0.17-0.79,0.27-1.26c-1.29,0.35-2.52,0.76-3.78,1.01c-0.9,0.18-1.84,0.22-2.76,0.18c-2.23-0.1-3.23-1.57-2.58-3.69
			c0.12-0.38,0.26-0.76,0.35-0.99c-1.6,0-3.21,0.05-4.81-0.02c-0.8-0.03-1.63-0.17-2.38-0.45c-1.77-0.68-2.37-2.01-1.84-3.82
			c0.11-0.39,0.27-0.76,0.44-1.26c-1.68-0.15-3.26-0.26-4.83-0.44c-0.69-0.08-1.37-0.26-2.04-0.46c-2.01-0.59-2.58-2.4-1.31-4.05
			c0.11-0.14,0.22-0.27,0.24-0.29c-1.87-0.63-3.8-1.1-5.57-1.91c-2.46-1.13-2.6-2.55-0.67-4.4c0.11-0.1,0.24-0.17,0.35-0.26
			c-1.76-0.63-3.5-1.12-5.11-1.87c-1.07-0.5-2.12-1.24-2.91-2.12c-0.9-0.99-0.57-2.04,0.66-2.61c0.96-0.45,2-0.74,3.02-1.1
			c-3.13-0.7-6.05-1.87-8.58-3.87c-0.75-0.59-1.44-1.29-2.01-2.06c-0.79-1.07-0.48-2.07,0.76-2.55c0.71-0.28,1.49-0.41,2.25-0.49
			c0.81-0.08,1.63-0.02,2.46-0.07c-3.44-1.16-6.23-3.32-8.79-5.77c-0.7-0.67-1.18-1.6-1.61-2.49c-0.56-1.18-0.29-1.69,1.07-1.67
			c1.95,0.03,3.89,0.3,5.84,0.5c0.54,0.05,1.06,0.2,1.79,0.34c-1.89-1.27-3.67-2.33-5.31-3.58c-2.04-1.56-3.78-3.43-5.03-5.71
			c-0.19-0.35-0.33-0.75-0.43-1.14c-0.33-1.26,0.33-1.96,1.62-1.58c2.54,0.73,5.06,1.56,7.59,2.35c0.62,0.19,1.25,0.37,1.95,0.4
			c-1.15-0.99-2.45-1.84-3.41-2.98c-2.33-2.77-4.52-5.66-6.7-8.55c-0.38-0.51-0.54-1.22-0.69-1.86c-0.08-0.35-0.07-0.95,0.14-1.1
			c0.29-0.2,0.87-0.22,1.2-0.06c1.57,0.75,3.14,1.51,4.62,2.4c2.15,1.29,4.25,2.68,6.34,4.07c1.59,1.06,3.12,2.21,4.64,3.36
			c-3.75-1.14-6.8-3.94-10.87-4.63c-0.15,1.72,0.61,2.92,1.48,3.99c1.05,1.29,2.18,2.55,3.46,3.6c3.47,2.86,7.15,5.41,11.43,6.93
			c0.2,0.07,0.39,0.18,0.53,0.42c-2.37-0.81-4.73-1.69-7.13-2.41c-2.75-0.83-5.54-1.56-8.33-2.24c-0.66-0.16-1.42,0.09-2.14,0.15
			c0.17,0.66,0.24,1.37,0.53,1.97c0.89,1.84,2.52,2.95,4.14,4.08c3.04,2.12,6.27,3.87,9.76,5.22c-0.55-0.1-1.1-0.22-1.65-0.3
			c-3.02-0.48-6.04-0.96-9.07-1.43c-0.25-0.04-0.52-0.02-0.78,0.02c-1.2,0.19-1.46,0.63-0.91,1.71c0.74,1.48,1.78,2.72,3.21,3.59
			c3.53,2.16,7.18,3.97,11.48,4c-0.02,0.13-0.04,0.26-0.06,0.39c-1.29-0.08-2.58-0.18-3.88-0.23c-1.89-0.07-3.78-0.17-5.67-0.15
			c-1.44,0.02-1.81,0.81-1.08,2.06c1.39,2.4,3.74,3.39,6.2,4.16c3.87,1.21,7.83,1.54,11.86,1.16c2.54-0.24,5.11-0.29,7.65-0.51
			c2.28-0.2,4.55-0.52,6.71-0.77c0.23-0.79,0.43-1.49,0.64-2.19c0.31,0.17,0.56,0.4,0.65,0.35c0.33-0.2,0.6-0.49,0.89-0.74
			c-0.28-0.14-0.56-0.37-0.85-0.4c-4.16-0.4-8.33-0.74-12.5-1.17c-1.82-0.19-3.63-0.52-5.45-0.79c0.01-0.1,0.03-0.2,0.04-0.3
			c0.87,0.12,1.73,0.24,2.6,0.38c5.38,0.86,10.77,0.87,16.17,0.21c0.38-0.05,1.33-0.19,1.14-1.16c-0.02-0.13,0.42-0.35,0.79-0.64
			c-3.91-1.27-7.89-1.45-11.83-1.84c0.01-0.14,0.02-0.29,0.04-0.43c4.74,0.19,9.49,0.39,14.23,0.58c0.03-0.09,0.07-0.19,0.1-0.28
			c-0.76-0.36-1.51-0.73-2.36-1.13c0.25-0.87-0.32-1.34-1.17-1.58c-2.12-0.59-4.24-1.16-6.37-1.87c2.51,0.32,5.03,0.6,7.54,0.98
			c1.39,0.21,2.75,0.61,4.13,0.85c0.43,0.07,0.9-0.09,1.35-0.15c-0.19-0.4-0.27-0.99-0.58-1.18c-1.71-1.02-3.45-1.99-5.22-2.89
			c-1.09-0.54-2.26-0.91-3.37-1.6c0.89,0.15,1.84,0.14,2.65,0.48c2.94,1.23,5.82,2.57,8.73,3.86c0.46,0.2,0.95,0.35,1.47,0.45
			c-5.27-5.68-12.25-9.53-16.69-16.06c6.08,5.96,12.58,11.38,19.69,16.03c0.07-0.08,0.14-0.17,0.21-0.25
			c-2.15-2.29-4.3-4.59-6.45-6.88c0.13-0.14,0.25-0.28,0.38-0.41c3.77,4.66,8.76,7.77,13.43,11.3c0.07-0.06,0.15-0.13,0.22-0.19
			c-0.08-0.24-0.17-0.48-0.26-0.74c0.09,0.03,0.18,0.03,0.21,0.07c1.6,2.15,3.59,3.75,6.02,4.94c1.53,0.75,2.77,2.09,4.14,3.16
			c5.61,4.38,11.66,7.97,18.39,10.35c0.31,0.11,0.62,0.23,0.93,0.33c0.06,0.02,0.14-0.02,0.51-0.08c-1.41-0.8-2.61-1.48-3.91-2.21
			c4.33-1.03,8.69-1.66,12.51-3.91c2.38-1.41,4.64-3.03,6.9-4.62c3.14-2.22,6.65-3.61,10.43-3.7c3.6-0.09,7.17,0.68,10.3,2.69
			c0.55,0.35,1.15,0.78,1.47,1.32c0.56,0.94,1.41,1.15,2.33,1.45c2.71,0.88,5.41,1.82,8.08,2.84c0.79,0.3,1.44,0.95,2.15,1.44
			c-0.02,0.13-0.04,0.25-0.05,0.38c-1.6,0.44-3.19,0.93-4.8,1.3c-2.1,0.48-4.24,0.81-6.33,1.34c-0.78,0.2-1.53,0.69-2.18,1.18
			c-0.95,0.71-2.29,0.95-2.76,2.25c-0.96-0.36-1.08,0.41-1.34,1.27c-0.14-0.47-0.21-0.69-0.32-1.08c-0.5,0.58-0.94,1.09-1.45,1.69
			c-0.1-0.18-0.19-0.33-0.26-0.47c-3.48,1.96-5.55,5.2-7.4,8.56c-2.75,4.97-5.81,9.71-9.49,14.05c-0.87,1.02-1.93,1.16-3.08,0.95
			c-2.77-0.52-4.09-2.66-5.07-4.98c-1.51-3.59-1.51-7.35-0.85-11.13c0.2-1.14,0.37-2.3,0.51-3.45c0.15-1.17-0.51-1.97-1.4-2.57
			c-0.21-0.14-0.65-0.13-0.89-0.01c-1.88,0.94-3.72,1.94-5.6,2.88c-2.11,1.06-4.25,2.08-6.37,3.11c-1.17,0.57-2.32,1.2-3.54,1.67
			c-0.84,0.32-1.76,0.42-2.65,0.62C107.78,90.16,107.8,90.27,107.83,90.38z M58.29,69.6c0,0.07,0,0.15-0.01,0.22
			c-3.96,0-7.92-0.03-11.88,0.02c-1.17,0.01-2.35,0.22-3.51,0.41c-0.72,0.12-1.06,0.66-0.68,1.3c0.48,0.8,1.01,1.66,1.73,2.22
			c3.37,2.61,7.29,2.66,11.23,2.02c3.2-0.52,6.33-1.5,9.53-2.03c2.17-0.36,3.72-1.51,5.17-2.95c0.68-0.68,0.59-1.15-0.32-1.45
			c-0.58-0.2-1.24-0.29-1.85-0.26C64.56,69.24,61.42,69.43,58.29,69.6z M130.97,129.38c-2.73-0.52-5.39-1.13-8.08-1.5
			c-3.61-0.49-7.26-0.74-10.88-1.21c-0.95-0.12-2.08-0.41-2.69-1.05c-0.62-0.64-0.69-1.8-1.04-2.83c-0.85,1.56-1.8,3.21-2.66,4.92
			c-0.31,0.62-0.07,1.13,0.7,1.32c0.96,0.24,1.88,0.61,2.85,0.83c3.48,0.77,6.96,1.56,10.47,2.21c2.06,0.38,4.11,1.22,6.28,0.51
			c0.25-0.08,0.58,0.04,0.87,0.1C128.59,133,130.65,131.49,130.97,129.38z M55.02,81.53c4.19-0.51,8.04-2.59,11.55-5.4
			c0.46-0.37,0.16-1.25-0.43-1.33c-0.39-0.06-0.81-0.03-1.19,0.04c-2.94,0.53-5.87,1.12-8.81,1.62c-1.96,0.33-3.96,0.49-5.91,0.86
			c-1.33,0.25-1.47,0.67-0.82,1.83c0.19,0.34,0.47,0.67,0.79,0.9C51.51,81.01,53,81.48,55.02,81.53z"/>
		<path d="M95.46,58.59c-1.53-1.51-3-2.95-4.46-4.39c-0.11,0.08-0.22,0.16-0.33,0.23c0.23,0.62,0.46,1.24,0.68,1.86
			c-0.05,0.02-0.1,0.05-0.14,0.07c-1.4-2.15-2.8-4.3-4.29-6.59c0.54-0.23,0.96-0.4,1.5-0.62c-0.75-1.3-1.7-2.69-0.94-4.2
			c0.84-1.68,2.59-1.24,3.87-1.26c-0.32-1.55-0.68-3.07-0.93-4.62c-0.16-0.97,0.32-1.71,1.32-1.83c1.11-0.13,2.25-0.13,3.37-0.13
			c0.42,0,0.84,0.18,1.44,0.32c-1.38-2.3-1.95-4.63-1.9-7.11c0.03-1.24,0.64-1.7,1.86-1.58c2.11,0.2,3.78,1.33,5.66,2.61
			c-0.26-0.78-0.41-1.36-0.64-1.91c-0.96-2.28-1.42-4.65-1.3-7.13c0.02-0.47,0.09-0.98,0.29-1.4c0.37-0.76,0.98-1.32,1.84-0.71
			c1.47,1.04,2.93,2.1,4.28,3.29c1.16,1.02,2.17,2.23,3.49,3.61c-2.26-5.83-3.54-11.44-1.41-17.21c0.17-0.07,0.35-0.15,0.52-0.22
			c0.68,0.78,1.48,1.48,2.01,2.35c2.66,4.44,5.25,8.92,7.86,13.39c0.09,0.15,0.17,0.31,0.35,0.43c-0.5-2.05-1.1-4.09-1.47-6.17
			c-0.84-4.64-0.98-9.26,0.66-13.79c0.33-0.91,0.69-1.97,1.79-2.01c1.07-0.03,1.38,1.05,1.61,1.87c0.86,3.07,1.58,6.19,2.45,9.26
			c0.98,3.43,2.06,6.83,3.1,10.24c0.13-0.03,0.26-0.06,0.4-0.09c-0.06-0.84-0.16-1.69-0.19-2.53c-0.09-2.81-0.27-5.62-0.19-8.43
			c0.13-4.56,1.43-8.87,3.18-13.05c0.16-0.38,0.53-0.74,0.89-0.94c0.57-0.3,1.19-0.36,1.31,0.54c0.2,1.55,0.44,3.1,0.55,4.66
			c0.21,2.94,0.3,5.88,0.5,8.82c0.26,3.77,0.59,7.53,0.89,11.29c0.01,0.18,0.05,0.36,0.33,0.58c0.06-0.35,0.15-0.69,0.17-1.04
			c0.3-4.94,1.23-9.77,3.12-14.34c0.69-1.67,1.94-3.13,3.03-4.62c0.57-0.78,1.4-1.19,2.51-0.88c-1.31,9-2.63,17.99-3.94,26.98
			c0.09,0.01,0.17,0.03,0.26,0.04c1.01-2.56,1.99-5.15,3.05-7.69c1.11-2.66,2.11-5.38,4-7.63c0.53-0.63,1.09-1.23,2.35-0.92
			c-0.26,1.05-0.49,2.1-0.8,3.13c-0.06,0.19-0.48,0.44-0.64,0.38c-1.23-0.38-1.84,0.45-2.32,1.25c-0.91,1.51-1.91,3.03-2.47,4.68
			c-1.82,5.37-3.49,10.8-5.14,16.23c-0.31,1.02-0.3,2.15-0.47,3.53c0.62-0.36,0.93-0.55,1.25-0.74c-1.37,1.43-0.88,3.21-0.89,4.87
			c-0.03,4.03-1.39,7.61-4.04,10.54c-1.99,2.2-3.12,4.72-4.08,7.41c-0.42,1.18-0.85,2.37-1.37,3.5c-0.2,0.44-0.63,0.95-1.05,1.07
			c-3.03,0.85-6.08,1.65-9.16,2.35c-0.61,0.14-1.42-0.08-1.99-0.4c-3.53-2-7.1-3.96-10.51-6.16c-3.67-2.37-6.76-5.4-9.17-9.08
			C96.47,57.86,95.97,57.84,95.46,58.59z M121.33,9.44c-0.15-0.01-0.3-0.02-0.45-0.04c-0.36,0.71-0.79,1.4-1.06,2.14
			c-1.13,3.21-0.81,6.5-0.36,9.76c0.52,3.78,1.77,7.35,3.44,10.8c1.79,3.68,3.39,7.45,5.12,11.16c0.25,0.53,0.77,0.93,1.16,1.39
			c0.14-0.05,0.29-0.11,0.43-0.16c0.21-0.86,0.7-1.77,0.58-2.58c-0.66-4.48-1.24-9-2.31-13.39c-1.05-4.32-2.61-8.53-4.04-12.75
			C123.11,13.62,122.17,11.55,121.33,9.44z M111.64,15.54c-0.51,0.77-1.06,1.24-1.12,1.76c-0.17,1.57-0.42,3.2-0.15,4.73
			c0.79,4.55,2.77,8.62,5.53,12.33c1.35,1.81,2.65,3.66,4,5.48c1.41,1.9,2.84,3.79,4.28,5.67c0.44,0.57,1.17,0.91,1.72,0.47
			c0.38-0.31,0.56-1.13,0.48-1.67c-0.13-0.97-0.48-1.93-0.81-2.87c-2.61-7.27-6.04-14.14-10.25-20.61
			C114.2,19.12,113,17.49,111.64,15.54z M131.57,6.63c-0.21-0.02-0.42-0.03-0.63-0.05c-0.53,1.46-1.19,2.89-1.56,4.4
			c-1.49,5.99-1.31,12.02-0.14,18.04c0.61,3.14,1.29,6.27,1.96,9.4c0.26,1.22,0.6,2.42,0.89,3.55c1.22,0.04,1.58-0.56,1.69-1.37
			c0.22-1.57,0.51-3.15,0.58-4.73c0.13-3.21,0.25-6.43,0.13-9.64c-0.08-2.28-0.58-4.53-0.86-6.8c-0.33-2.67-0.55-5.35-0.95-8.01
			C132.44,9.8,131.95,8.22,131.57,6.63z M122.18,46.63c-0.08-0.27-0.11-0.49-0.2-0.68c-0.28-0.56-0.54-1.14-0.87-1.67
			c-3.27-5.34-6.6-10.63-10.84-15.28c-1.34-1.47-2.77-2.89-4.29-4.18c-1.26-1.07-2.08-0.66-2.46,0.95
			c-0.65,2.75,0.21,5.14,1.79,7.29c3.93,5.33,9.03,9.49,14.05,13.71C120.18,47.46,121.22,47.16,122.18,46.63z M118.13,48.73
			c-0.86-1.06-1.57-2.09-2.43-2.97c-3.18-3.26-6.34-6.54-9.65-9.67c-1.43-1.35-3.14-2.45-4.84-3.47c-1.52-0.92-2.28-0.5-2.82,1.25
			c-0.69,2.21,0.07,4.54,2.36,6.07c4.45,2.98,8.99,5.85,13.55,8.67C115.33,49.24,116.6,49.62,118.13,48.73z M141.37,10.01
			c-0.11-0.06-0.23-0.12-0.34-0.18c-0.69,1.15-1.45,2.27-2.05,3.47c-2.44,4.9-3.01,10.23-3.33,15.58c-0.22,3.62-0.2,7.26-0.2,10.89
			c0,1.1,0.31,2.21,0.48,3.31c0.17,0.02,0.35,0.05,0.52,0.07c0.41-1.07,0.88-2.13,1.22-3.23c1.13-3.62,2.23-7.25,2.56-11.06
			c0.24-2.8,0.42-5.61,0.82-8.38C141.53,17,141.82,13.52,141.37,10.01z M96.71,39.47c-1.47-0.03-2.46,0.91-2.53,2.03
			c-0.12,2.02,1.15,3.19,2.72,3.94c4.61,2.2,9.27,4.29,13.92,6.38c0.63,0.28,1.35,0.41,2.05,0.47c0.34,0.03,0.81-0.16,1.04-0.42
			c0.13-0.15-0.01-0.69-0.19-0.94c-0.42-0.56-0.87-1.12-1.42-1.55c-1.1-0.87-2.25-1.68-3.42-2.47c-3.09-2.09-6.18-4.19-9.32-6.19
			C98.59,40.1,97.42,39.77,96.71,39.47z"/>
		<path d="M54.51,27.12c-1.24-1.37-2.46-2.75-3.72-4.11c-0.63-0.68-1.29-1.33-2-1.92c-0.26-0.21-0.79-0.37-1.04-0.24
			c-0.27,0.13-0.54,0.68-0.48,0.97c0.33,1.5,0.57,3.07,1.2,4.44c1.74,3.78,4.07,7.21,6.77,10.38c1.27,1.49,2.46,3.05,3.69,4.57
			c0.08-0.08,0.15-0.16,0.23-0.24c-1.01-0.79-2.13-1.48-3-2.41c-1.62-1.73-3.01-3.67-4.63-5.39c-3.5-3.72-5.82-8.21-8.04-12.7
			c-1.32-2.68-2-5.69-2.84-8.58c-0.24-0.83-0.04-1.79-0.04-2.69c0.15-0.07,0.3-0.14,0.46-0.21c0.71,0.54,1.54,0.97,2.12,1.63
			c4.12,4.67,7.48,9.89,10.89,15.07c0.26,0.39,0.43,0.83,0.65,1.25C54.65,27.01,54.58,27.07,54.51,27.12z"/>
		<path d="M48.3,40.67c-2.1-0.76-3.8-2.15-5.3-3.7c-4.4-4.56-8.71-9.22-11.45-15.05c-0.58-1.22-0.93-2.56-1.33-3.86
			c-0.1-0.31-0.07-0.93,0.07-0.98c0.32-0.13,0.84-0.14,1.11,0.05c1.25,0.85,2.48,1.74,3.63,2.71c2.2,1.87,4.37,3.78,6.51,5.73
			c0.9,0.81,1.68,1.75,2.34,2.85c-1.13-0.74-2.25-1.51-3.41-2.21c-0.72-0.43-1.48-0.84-2.27-1.11c-0.87-0.3-1.23,0.11-0.99,1
			c0.78,3,2.68,5.34,4.64,7.61C43.9,36.08,46.11,38.33,48.3,40.67z"/>
		<path d="M66.98,39.68c-3.42-5.41-7.03-10.75-7.67-17.34c-0.24-2.46-0.71-5.04,1.05-7.45c3.01,5.39,4.55,11.31,7.2,16.75
			c-0.1,0.04-0.19,0.09-0.29,0.13c-1.17-2.2-2.34-4.4-3.52-6.59c-0.46-0.85-0.9-1.7-1.42-2.5c-0.21-0.32-0.65-0.49-0.98-0.74
			c-0.18,0.38-0.48,0.75-0.51,1.14c-0.2,2.81,0.53,5.43,1.78,7.91c1.31,2.61,2.66,5.2,3.99,7.79
			C66.75,39.07,66.85,39.38,66.98,39.68z"/>
		<path d="M69.17,49.14c-2.68-1.62-5.35-3.25-8.03-4.87c0.07-0.12,0.14-0.24,0.22-0.36c2.68,1.61,5.36,3.22,8.05,4.82
			C69.32,48.87,69.24,49.01,69.17,49.14z"/>
		<path d="M64.48,51.43c-0.97-0.27-1.93-0.53-2.89-0.8c0.03-0.1,0.06-0.2,0.08-0.29c0.98,0.25,1.96,0.5,2.94,0.76
			C64.57,51.2,64.53,51.32,64.48,51.43z"/>
		<path class="st0" d="M58.29,69.6c3.14-0.17,6.28-0.36,9.42-0.5c0.61-0.03,1.27,0.06,1.85,0.26c0.91,0.31,1,0.78,0.32,1.45
			c-1.45,1.45-3.01,2.6-5.17,2.95c-3.2,0.53-6.33,1.5-9.53,2.03c-3.94,0.64-7.86,0.59-11.23-2.02c-0.72-0.56-1.25-1.42-1.73-2.22
			c-0.38-0.64-0.04-1.18,0.68-1.3c1.16-0.19,2.34-0.4,3.51-0.41c3.96-0.05,7.92-0.02,11.88-0.02C58.28,69.75,58.28,69.68,58.29,69.6
			z"/>
		<path class="st0" d="M55.02,81.53c-2.02-0.05-3.51-0.52-4.83-1.48c-0.32-0.23-0.6-0.56-0.79-0.9c-0.65-1.16-0.51-1.58,0.82-1.83
			c1.96-0.36,3.95-0.52,5.91-0.86c2.94-0.5,5.87-1.09,8.81-1.62c0.39-0.07,0.81-0.1,1.19-0.04c0.59,0.09,0.89,0.96,0.43,1.33
			C63.06,78.94,59.2,81.02,55.02,81.53z"/>
		<path class="st0" d="M121.33,9.44c0.84,2.11,1.78,4.18,2.51,6.33c1.43,4.22,2.99,8.43,4.04,12.75c1.07,4.39,1.64,8.91,2.31,13.39
			c0.12,0.81-0.37,1.72-0.58,2.58c-0.14,0.05-0.29,0.11-0.43,0.16c-0.39-0.46-0.92-0.86-1.16-1.39c-1.73-3.71-3.33-7.48-5.12-11.16
			c-1.68-3.45-2.92-7.01-3.44-10.8c-0.45-3.26-0.77-6.55,0.36-9.76c0.26-0.75,0.7-1.43,1.06-2.14
			C121.03,9.42,121.18,9.43,121.33,9.44z"/>
		<path class="st0" d="M111.64,15.54c1.36,1.95,2.56,3.59,3.67,5.28c4.21,6.47,7.64,13.34,10.25,20.61
			c0.34,0.94,0.68,1.89,0.81,2.87c0.07,0.55-0.1,1.37-0.48,1.67c-0.54,0.44-1.28,0.11-1.72-0.47c-1.44-1.88-2.87-3.77-4.28-5.67
			c-1.35-1.82-2.65-3.67-4-5.48c-2.76-3.7-4.74-7.78-5.53-12.33c-0.26-1.52-0.02-3.16,0.15-4.73
			C110.58,16.77,111.13,16.31,111.64,15.54z"/>
		<path class="st0" d="M131.57,6.63c0.38,1.59,0.86,3.17,1.1,4.78c0.4,2.66,0.62,5.34,0.95,8.01c0.28,2.27,0.78,4.53,0.86,6.8
			c0.12,3.21,0,6.43-0.13,9.64c-0.06,1.58-0.36,3.16-0.58,4.73c-0.11,0.81-0.47,1.41-1.69,1.37c-0.28-1.13-0.62-2.33-0.89-3.55
			c-0.67-3.13-1.35-6.26-1.96-9.4c-1.17-6.02-1.36-12.05,0.14-18.04c0.37-1.5,1.03-2.93,1.56-4.4
			C131.16,6.6,131.37,6.61,131.57,6.63z"/>
		<path class="st0" d="M122.18,46.63c-0.95,0.53-2,0.83-2.82,0.14c-5.02-4.23-10.12-8.38-14.05-13.71
			c-1.58-2.15-2.44-4.54-1.79-7.29c0.38-1.61,1.2-2.02,2.46-0.95c1.52,1.29,2.95,2.7,4.29,4.18c4.23,4.65,7.57,9.94,10.84,15.28
			c0.33,0.53,0.6,1.11,0.87,1.67C122.07,46.14,122.1,46.36,122.18,46.63z"/>
		<path class="st0" d="M118.13,48.73c-1.53,0.89-2.79,0.51-3.84-0.13c-4.56-2.82-9.09-5.69-13.55-8.67
			c-2.29-1.53-3.05-3.86-2.36-6.07c0.54-1.75,1.31-2.17,2.82-1.25c1.7,1.03,3.41,2.12,4.84,3.47c3.31,3.13,6.47,6.41,9.65,9.67
			C116.56,46.64,117.27,47.67,118.13,48.73z"/>
		<path class="st0" d="M141.37,10.01c0.45,3.51,0.16,6.98-0.33,10.47c-0.39,2.78-0.58,5.59-0.82,8.38
			c-0.32,3.81-1.42,7.44-2.56,11.06c-0.34,1.1-0.81,2.15-1.22,3.23c-0.17-0.02-0.35-0.05-0.52-0.07c-0.17-1.1-0.48-2.21-0.48-3.31
			c0-3.63-0.02-7.27,0.2-10.89c0.32-5.35,0.89-10.68,3.33-15.58c0.6-1.2,1.36-2.32,2.05-3.47C141.14,9.89,141.26,9.95,141.37,10.01z
			"/>
		<path class="st0" d="M96.71,39.47c0.71,0.3,1.88,0.63,2.85,1.25c3.15,2,6.23,4.11,9.32,6.19c1.16,0.79,2.32,1.6,3.42,2.47
			c0.54,0.43,1,0.99,1.42,1.55c0.18,0.25,0.33,0.79,0.19,0.94c-0.23,0.26-0.7,0.45-1.04,0.42c-0.69-0.06-1.42-0.19-2.05-0.47
			c-4.66-2.09-9.32-4.18-13.92-6.38c-1.57-0.75-2.85-1.93-2.72-3.94C94.25,40.38,95.25,39.43,96.71,39.47z"/>
	</g>
</g>
</svg>
