<?xml version="1.0" encoding="utf-8"?>
<!-- Generator: Adobe Illustrator 28.0.0, SVG Export Plug-In . SVG Version: 6.00 Build 0)  -->
<svg version="1.1" id="Layer_1" xmlns="http://www.w3.org/2000/svg" xmlns:xlink="http://www.w3.org/1999/xlink" x="0px" y="0px"
	 viewBox="0 0 173.08 171.3" style="enable-background:new 0 0 173.08 171.3;" xml:space="preserve">
<style type="text/css">
	.st0{fill:#FFFFFF;}
</style>
<path class="st0" d="M81.83,58.44c0,0-6.04-6.4-10.05-14.39l-3.89-7.58l-1.11,2.09l0.77,4.18l3.69,7.47l3.18,5.2
	c0,0-6.91-6.99-15.92-18.94l-3-1.59l1.59,5.93l5.46,7.49l-13.07-9.49l-1,1.92l2.09,3.95l6.69,6.6l-13.46-7.2v2.58l3.01,4.1
	l4.09,3.68l-8.52-2.4l1.09,2.96l6.94,5.71h-7.44l4.51,4.34l3.71,2.09l-4.37,0.42l0.42,2.42l4.92,2.67l4.69,2.42
	c0,0,20.47-1.09,20.73-1.09c0.25,0,8.98-10.45,8.98-10.45L81.83,58.44z"/>
<path class="st0" d="M132.63,35.64c0,0,1.09-1.67,0,3.43c0,0-3.54,11.14-7.33,16.85l-1.28-0.92
	C124.03,55.01,131.54,32.22,132.63,35.64z"/>
<path class="st0" d="M110.32,109.52l4.69-3.09c0,0,5.42,0.12,9.01-7.84l-5.52-18.55L92.25,92.89v6.1l-5.43,13.29l6.78,0.33
	l5.46,1.09l5.65-1.42L110.32,109.52z"/>
<g>
	<g>
		<path d="M102.45,89.19c1.21,0.09,2.41,0.18,3.62,0.27c0.02,0.06,0.04,0.12,0.06,0.18c-0.59,0.16-1.19,0.32-1.78,0.47
			c1.88,0.5,3.73,0.29,5.59-0.13c0.03,0.09,0.06,0.18,0.1,0.27c-1,0.39-1.98,0.87-3.02,1.15c-2.13,0.57-4.29,0.54-6.38-0.21
			c-0.97-0.35-1.74-0.18-2.39,0.57c-0.97,1.13-2.01,2.22-2.84,3.44c-1.79,2.64-3.3,5.43-3.87,8.64c-0.46,2.6-0.42,5.04,1.45,7.18
			c1.04,1.19,2.35,1.75,3.83,1.93c2.87,0.34,5.51-0.49,8.08-1.7c2.12-1,4.27-1.95,6.41-2.91c0.65-0.29,1.31-0.53,2.01-0.74
			c-2.29,1.74-4.01,3.91-5.35,6.67c1.09,0.23,2.07,0.44,3.06,0.64c1.7,0.35,3.4,0.73,5.1,1.05c1.44,0.27,2.88,0.57,4.33,0.67
			c1.02,0.07,1.64,0.48,2.21,1.28c0.7,0.98,1.57,1.83,2.28,2.8c0.41,0.56,0.62,1.26,0.93,1.89c0.23,0.46,0.63,0.91,0.66,1.38
			c0.08,1.18,0.8,2.27,0.37,3.54c-0.33,0.99-1,1.65-1.77,2.22c-0.36,0.26-0.88,0.29-1.34,0.43c0.82-0.75,1.58-1.45,2.41-2.22
			c-0.87-0.55-1.03-1.09-0.87-1.92c0.11-0.53-0.22-1.18-0.42-1.75c-0.25-0.68-0.57-1.34-0.95-1.98c0.31,1.47,0.65,2.92,0.26,4.42
			c-0.02,0.08-0.02,0.17-0.04,0.25c-0.42,1.27-1.18,1.5-2.57,0.78c0.02-0.05,0.04-0.14,0.07-0.14c1.67-0.23,1.33-1.67,1.34-2.62
			c0.03-1.67-0.46-3.29-1.32-4.76c-0.04-0.07-0.1-0.12-0.26-0.3c-0.89,0.81-1.78,1.58-2.62,2.4c-1.18,1.14-1.41,1.14-2.49-0.06
			c-0.17-0.19-0.41-0.31-0.62-0.46c-0.07,0.06-0.15,0.12-0.22,0.19c0.67,0.97,1.31,1.96,2,2.9c1.73,2.36,3.28,4.77,2.72,7.93
			c-0.25,1.4-1.33,2.32-2.74,2.23c-0.3-0.02-0.6-0.06-0.94-0.21c0.3-0.05,0.6-0.11,0.9-0.16c0.77-0.12,1.54-0.75,1.57-1.49
			c0.04-0.79,0.05-1.64-0.19-2.38c-0.44-1.37-1.07-2.68-1.64-4.01c-0.07-0.16-0.19-0.29-0.38-0.41c0.41,1.87,1.6,3.62,0.73,5.62
			c-0.15,0.34-0.4,0.64-0.6,0.95c-0.61-0.22-0.67-0.5-0.64-1.09c0.06-1.16,0-2.38-0.27-3.51c-0.3-1.24-0.88-2.42-1.36-3.61
			c-0.13-0.32-0.37-0.6-0.55-0.87c-1.21,0.81-2.36,1.61-3.55,2.35c-0.7,0.44-1.5,0.66-2.27,0.18c-0.31-0.19-0.49-0.57-0.74-0.86
			c-0.11-0.14-0.25-0.38-0.35-0.37c-0.18,0.02-0.4,0.16-0.51,0.32c-0.55,0.81-0.23,1.52,0.26,2.25c-0.52-0.38-1.17-0.6-1.22-1.4
			c-0.05-0.91,0.4-1.87,1.2-2.08c0.66-0.17,1.46-0.24,2.06,0c0.7,0.28,1.22,0.19,1.75-0.18c0.63-0.43,1.22-0.91,1.83-1.37
			c-0.02-0.09-0.05-0.17-0.07-0.26c-1.36-0.31-2.7-0.68-4.07-0.92c-3.53-0.6-7.06-1.16-10.59-1.69c-2.21-0.33-3.11-1.77-2.31-3.84
			c0.32-0.81,0.7-1.6,1.05-2.37c-0.87-0.41-1.88,0.67-2.77-0.35c-0.99,0.46-2.12,0.99-3.43,1.6c0.06-0.47,0.08-0.65,0.08-0.65
			c-1.74,0.48-3.5,0.99-5.28,1.44c-1.09,0.27-1.99,0.76-2.69,1.66c-2.13,2.74-4.93,4.75-7.62,6.88c-1.9,1.5-3.85,2.94-5.79,4.41
			c-0.24,0.18-0.5,0.35-0.76,0.51c-0.94,0.55-1.05,0.51-1.44-0.43c-2.4,2.05-4.78,4.17-7.27,6.15c-1.02,0.81-2.24,1.39-3.43,1.95
			c-0.87,0.41-1.22,0.03-1.01-0.92c0.02-0.1,0.07-0.19,0.19-0.5c-1.48,1.23-2.72,2.42-4.13,3.39c-1.75,1.2-3.57,2.3-5.46,3.25
			c-1.24,0.63-1.52,0.39-2.02-0.74c-1.71,1.08-3.43,2.18-5.17,3.25c-1.1,0.68-2.15,1.48-3.58,1.3c-0.29-0.04-0.65,0.15-0.92,0.33
			c-2.11,1.35-4.5,1.97-6.87,2.62c-1.09,0.3-2.18,0.59-3.28,0.82c-0.8,0.16-1.54-0.02-2.1-0.74c0.46-1.19,1.57-1.7,2.56-2.21
			c6.44-3.35,12.61-7.16,18.62-11.2c6.22-4.19,12.37-8.48,18.51-12.79c4.14-2.91,8.24-5.88,12.31-8.88
			c4.6-3.39,8.96-7.05,12.86-11.26c1.41-1.52,3.05-2.82,4.58-4.22c-0.09-0.05-0.19-0.11-0.28-0.16c-0.94,0.06-1.9,0.25-2.82,0.15
			c-1.09-0.12-1.56-0.85-1.64-2.07c-0.91,0.44-1.78,0.98-2.72,1.29c-0.81,0.26-1.72,0.4-2.57,0.35c-1.37-0.08-1.9-0.89-1.68-2.26
			c0.05-0.3,0.12-0.59,0.2-0.94c-0.97,0.26-1.89,0.57-2.83,0.75c-0.67,0.13-1.37,0.17-2.06,0.14c-1.66-0.07-2.41-1.17-1.93-2.76
			c0.09-0.29,0.2-0.56,0.26-0.74c-1.2,0-2.4,0.04-3.59-0.02c-0.6-0.03-1.22-0.13-1.78-0.34c-1.32-0.51-1.77-1.5-1.37-2.85
			c0.09-0.29,0.2-0.57,0.33-0.94c-1.25-0.11-2.43-0.19-3.61-0.33c-0.51-0.06-1.03-0.19-1.52-0.34c-1.5-0.44-1.93-1.79-0.98-3.03
			c0.08-0.1,0.17-0.2,0.18-0.22c-1.39-0.47-2.84-0.82-4.16-1.43c-1.84-0.85-1.95-1.91-0.5-3.29c0.08-0.08,0.18-0.13,0.26-0.19
			c-1.32-0.47-2.61-0.84-3.82-1.4c-0.8-0.37-1.58-0.93-2.17-1.58c-0.67-0.74-0.42-1.52,0.49-1.95c0.72-0.33,1.49-0.55,2.26-0.83
			c-2.34-0.52-4.52-1.4-6.41-2.9c-0.56-0.44-1.08-0.97-1.5-1.54c-0.59-0.8-0.36-1.55,0.57-1.91c0.53-0.21,1.11-0.31,1.68-0.37
			c0.6-0.06,1.22-0.01,1.84-0.05c-2.57-0.87-4.66-2.48-6.57-4.31c-0.52-0.5-0.88-1.2-1.2-1.86c-0.42-0.88-0.22-1.26,0.8-1.25
			c1.46,0.02,2.91,0.23,4.36,0.37c0.4,0.04,0.79,0.15,1.34,0.25c-1.41-0.95-2.74-1.74-3.97-2.68c-1.53-1.16-2.83-2.57-3.76-4.27
			c-0.14-0.26-0.24-0.56-0.32-0.85c-0.25-0.95,0.25-1.46,1.21-1.18c1.9,0.55,3.78,1.17,5.67,1.76c0.46,0.14,0.93,0.27,1.45,0.3
			c-0.86-0.74-1.83-1.38-2.55-2.23c-1.74-2.07-3.38-4.23-5.01-6.39c-0.29-0.38-0.4-0.91-0.51-1.39c-0.06-0.26-0.05-0.71,0.1-0.82
			c0.21-0.15,0.65-0.17,0.9-0.05c1.17,0.56,2.34,1.13,3.45,1.79c1.61,0.97,3.18,2,4.74,3.04c1.19,0.79,2.33,1.65,3.47,2.51
			c-2.81-0.85-5.09-2.95-8.13-3.46c-0.11,1.29,0.46,2.19,1.11,2.98c0.78,0.96,1.63,1.9,2.58,2.69c2.59,2.14,5.34,4.04,8.55,5.18
			c0.15,0.05,0.29,0.13,0.4,0.31c-1.77-0.61-3.53-1.26-5.33-1.8c-2.06-0.62-4.14-1.17-6.23-1.67c-0.49-0.12-1.06,0.07-1.6,0.11
			c0.13,0.49,0.18,1.02,0.4,1.47c0.66,1.38,1.89,2.21,3.1,3.05c2.27,1.58,4.69,2.89,7.3,3.9c-0.41-0.08-0.82-0.16-1.23-0.23
			c-2.26-0.36-4.52-0.72-6.78-1.07c-0.19-0.03-0.39-0.02-0.58,0.01c-0.9,0.14-1.09,0.47-0.68,1.28c0.56,1.1,1.33,2.03,2.4,2.69
			c2.63,1.62,5.37,2.96,8.58,2.99c-0.02,0.1-0.03,0.19-0.05,0.29c-0.97-0.06-1.93-0.13-2.9-0.17c-1.41-0.05-2.83-0.12-4.24-0.11
			c-1.07,0.01-1.35,0.6-0.81,1.54c1.04,1.79,2.79,2.53,4.64,3.11c2.89,0.9,5.85,1.15,8.87,0.87c1.9-0.18,3.82-0.21,5.72-0.38
			c1.7-0.15,3.4-0.39,5.01-0.58c0.17-0.59,0.32-1.11,0.48-1.64c0.23,0.13,0.42,0.3,0.49,0.26c0.24-0.15,0.45-0.36,0.66-0.55
			c-0.21-0.1-0.42-0.28-0.64-0.3c-3.11-0.3-6.23-0.56-9.34-0.87c-1.36-0.14-2.72-0.39-4.07-0.59c0.01-0.07,0.02-0.15,0.03-0.22
			c0.65,0.09,1.3,0.18,1.94,0.28c4.02,0.65,8.05,0.65,12.08,0.16c0.28-0.03,0.99-0.14,0.85-0.87c-0.02-0.1,0.31-0.26,0.59-0.48
			c-2.93-0.95-5.9-1.08-8.85-1.37c0.01-0.11,0.02-0.21,0.03-0.32c3.54,0.14,7.09,0.29,10.63,0.43c0.02-0.07,0.05-0.14,0.07-0.21
			c-0.57-0.27-1.13-0.54-1.76-0.85c0.19-0.65-0.24-1-0.88-1.18c-1.58-0.44-3.17-0.87-4.76-1.4c1.88,0.24,3.76,0.45,5.64,0.73
			c1.04,0.16,2.05,0.46,3.09,0.64c0.32,0.06,0.67-0.07,1.01-0.11c-0.14-0.3-0.2-0.74-0.43-0.88c-1.27-0.76-2.58-1.49-3.9-2.16
			c-0.81-0.41-1.69-0.68-2.52-1.2c0.66,0.11,1.38,0.11,1.98,0.36c2.2,0.92,4.35,1.92,6.53,2.89c0.35,0.15,0.71,0.26,1.1,0.34
			c-3.94-4.24-9.15-7.12-12.47-12c4.54,4.46,9.4,8.51,14.72,11.98c0.05-0.06,0.11-0.13,0.16-0.19c-1.61-1.71-3.21-3.43-4.82-5.14
			c0.09-0.1,0.19-0.21,0.28-0.31c2.82,3.48,6.55,5.81,10.04,8.45c0.06-0.05,0.11-0.1,0.17-0.14c-0.06-0.18-0.12-0.36-0.19-0.55
			c0.07,0.02,0.13,0.02,0.16,0.05c1.19,1.61,2.68,2.8,4.5,3.7c1.14,0.56,2.07,1.56,3.1,2.36c4.19,3.27,8.71,5.96,13.75,7.74
			c0.23,0.08,0.46,0.17,0.7,0.25c0.05,0.02,0.11-0.01,0.38-0.06c-1.05-0.6-1.95-1.11-2.92-1.66c3.23-0.77,6.5-1.24,9.35-2.92
			c1.78-1.05,3.47-2.26,5.16-3.46c2.35-1.66,4.97-2.7,7.8-2.77c2.69-0.07,5.36,0.51,7.7,2.01c0.41,0.26,0.86,0.58,1.1,0.99
			c0.41,0.7,1.05,0.86,1.74,1.08c2.03,0.66,4.05,1.36,6.04,2.12c0.59,0.22,1.08,0.71,1.61,1.08c-0.01,0.09-0.03,0.19-0.04,0.28
			c-1.2,0.33-2.38,0.7-3.59,0.98c-1.57,0.36-3.17,0.61-4.73,1c-0.58,0.15-1.14,0.51-1.63,0.88c-0.71,0.53-1.71,0.71-2.06,1.68
			c-0.71-0.27-0.8,0.3-1,0.95c-0.11-0.35-0.15-0.52-0.24-0.81c-0.37,0.43-0.7,0.82-1.09,1.26c-0.08-0.13-0.14-0.25-0.2-0.35
			c-2.6,1.47-4.14,3.89-5.53,6.4c-2.05,3.72-4.34,7.26-7.09,10.5c-0.65,0.76-1.44,0.87-2.3,0.71c-2.07-0.39-3.05-1.98-3.79-3.72
			c-1.13-2.69-1.13-5.49-0.64-8.32c0.15-0.86,0.27-1.72,0.38-2.58c0.11-0.88-0.38-1.47-1.05-1.92c-0.16-0.11-0.49-0.1-0.67-0.01
			c-1.4,0.7-2.78,1.45-4.18,2.15c-1.58,0.79-3.17,1.55-4.76,2.33c-0.88,0.43-1.74,0.9-2.64,1.25c-0.63,0.24-1.32,0.31-1.98,0.46
			C102.41,89.02,102.43,89.1,102.45,89.19z M65.42,73.65c0,0.06,0,0.11,0,0.17c-2.96,0-5.92-0.02-8.88,0.01
			c-0.88,0.01-1.76,0.17-2.63,0.31c-0.54,0.09-0.79,0.5-0.5,0.97c0.36,0.6,0.75,1.24,1.29,1.66c2.52,1.95,5.45,1.99,8.4,1.51
			c2.39-0.39,4.73-1.12,7.12-1.51c1.62-0.27,2.78-1.13,3.87-2.21c0.51-0.51,0.44-0.86-0.24-1.09c-0.43-0.15-0.92-0.21-1.38-0.19
			C70.11,73.38,67.77,73.53,65.42,73.65z M119.75,118.33c-2.04-0.39-4.03-0.85-6.04-1.12c-2.7-0.37-5.43-0.56-8.13-0.9
			c-0.71-0.09-1.55-0.31-2.01-0.78c-0.46-0.48-0.52-1.34-0.78-2.12c-0.63,1.16-1.34,2.4-1.99,3.68c-0.23,0.46-0.05,0.84,0.52,0.99
			c0.72,0.18,1.41,0.46,2.13,0.62c2.6,0.57,5.21,1.17,7.83,1.65c1.54,0.29,3.07,0.91,4.69,0.38c0.19-0.06,0.44,0.03,0.65,0.07
			C117.97,121.04,119.51,119.92,119.75,118.33z M62.98,82.57c3.13-0.38,6.01-1.93,8.63-4.04c0.35-0.28,0.12-0.93-0.32-0.99
			c-0.29-0.04-0.6-0.02-0.89,0.03c-2.2,0.4-4.39,0.84-6.59,1.21c-1.47,0.25-2.96,0.37-4.42,0.64c-1,0.19-1.1,0.5-0.61,1.37
			c0.14,0.26,0.35,0.5,0.59,0.67C60.35,82.18,61.47,82.53,62.98,82.57z"/>
		<path d="M93.2,65.42c-1.15-1.13-2.24-2.2-3.34-3.28c-0.08,0.06-0.17,0.12-0.25,0.18c0.17,0.46,0.34,0.93,0.51,1.39
			c-0.04,0.02-0.07,0.04-0.11,0.06c-1.05-1.61-2.09-3.22-3.2-4.92c0.4-0.17,0.72-0.3,1.12-0.47c-0.56-0.97-1.27-2.01-0.7-3.14
			c0.63-1.26,1.93-0.93,2.89-0.95c-0.24-1.16-0.51-2.3-0.7-3.45c-0.12-0.73,0.24-1.28,0.99-1.37c0.83-0.1,1.68-0.1,2.52-0.1
			c0.31,0,0.63,0.13,1.08,0.24c-1.03-1.72-1.46-3.46-1.42-5.32c0.02-0.92,0.48-1.27,1.39-1.18c1.58,0.15,2.83,0.99,4.23,1.95
			c-0.19-0.58-0.31-1.02-0.48-1.43c-0.72-1.71-1.06-3.48-0.97-5.33c0.02-0.35,0.06-0.73,0.21-1.04c0.28-0.57,0.74-0.99,1.38-0.53
			c1.1,0.78,2.19,1.57,3.2,2.46c0.87,0.76,1.62,1.66,2.61,2.7c-1.69-4.36-2.65-8.55-1.06-12.87c0.13-0.06,0.26-0.11,0.39-0.17
			c0.51,0.58,1.11,1.11,1.5,1.76c1.99,3.32,3.92,6.67,5.87,10.01c0.07,0.11,0.13,0.23,0.26,0.32c-0.37-1.54-0.82-3.06-1.1-4.61
			c-0.63-3.47-0.73-6.92,0.5-10.31c0.25-0.68,0.51-1.47,1.34-1.5c0.8-0.03,1.03,0.78,1.2,1.4c0.64,2.3,1.18,4.62,1.83,6.92
			c0.73,2.56,1.54,5.1,2.32,7.65c0.1-0.02,0.2-0.04,0.3-0.06c-0.05-0.63-0.12-1.26-0.14-1.89c-0.06-2.1-0.2-4.2-0.14-6.3
			c0.1-3.41,1.07-6.63,2.38-9.75c0.12-0.28,0.39-0.56,0.67-0.7c0.42-0.23,0.89-0.27,0.98,0.4c0.15,1.16,0.33,2.32,0.41,3.49
			c0.15,2.19,0.22,4.39,0.37,6.59c0.2,2.82,0.44,5.63,0.66,8.44c0.01,0.13,0.04,0.27,0.24,0.44c0.04-0.26,0.11-0.52,0.13-0.78
			c0.22-3.69,0.92-7.3,2.33-10.72c0.52-1.25,1.45-2.34,2.26-3.45c0.42-0.58,1.05-0.89,1.88-0.66c-0.98,6.72-1.96,13.45-2.95,20.17
			c0.06,0.01,0.13,0.02,0.19,0.03c0.76-1.92,1.49-3.85,2.28-5.75c0.83-1.99,1.57-4.02,2.99-5.71c0.4-0.47,0.82-0.92,1.76-0.68
			c-0.19,0.78-0.37,1.57-0.6,2.34c-0.04,0.14-0.36,0.33-0.48,0.29c-0.92-0.28-1.37,0.34-1.73,0.94c-0.68,1.13-1.43,2.27-1.84,3.5
			c-1.36,4.02-2.61,8.07-3.85,12.13c-0.23,0.77-0.22,1.61-0.35,2.64c0.46-0.27,0.7-0.41,0.93-0.55c-1.02,1.07-0.66,2.4-0.67,3.64
			c-0.02,3.01-1.04,5.69-3.02,7.88c-1.48,1.64-2.33,3.53-3.05,5.54c-0.31,0.88-0.63,1.77-1.03,2.62c-0.15,0.33-0.47,0.71-0.79,0.8
			c-2.27,0.63-4.55,1.23-6.84,1.76c-0.46,0.1-1.06-0.06-1.49-0.3c-2.64-1.49-5.31-2.96-7.86-4.6c-2.74-1.77-5.06-4.04-6.86-6.79
			C93.96,64.88,93.59,64.86,93.2,65.42z M112.55,28.69c-0.11-0.01-0.22-0.02-0.34-0.03c-0.27,0.53-0.59,1.04-0.79,1.6
			c-0.85,2.4-0.6,4.86-0.27,7.3c0.39,2.83,1.32,5.5,2.57,8.07c1.34,2.75,2.53,5.57,3.82,8.34c0.18,0.39,0.57,0.69,0.87,1.04
			c0.11-0.04,0.21-0.08,0.32-0.12c0.16-0.65,0.52-1.32,0.43-1.93c-0.5-3.35-0.93-6.72-1.73-10.01c-0.79-3.23-1.95-6.37-3.02-9.53
			C113.88,31.81,113.18,30.26,112.55,28.69z M105.3,33.24c-0.38,0.58-0.79,0.93-0.83,1.32c-0.13,1.17-0.31,2.39-0.11,3.53
			c0.59,3.4,2.07,6.45,4.13,9.21c1.01,1.35,1.98,2.74,2.99,4.09c1.05,1.42,2.12,2.84,3.2,4.24c0.33,0.43,0.88,0.68,1.29,0.35
			c0.28-0.23,0.42-0.84,0.36-1.25c-0.1-0.73-0.36-1.44-0.61-2.14c-1.95-5.43-4.52-10.57-7.67-15.4
			C107.22,35.92,106.32,34.7,105.3,33.24z M120.2,26.58c-0.16-0.01-0.31-0.02-0.47-0.04c-0.4,1.09-0.89,2.16-1.17,3.29
			c-1.12,4.48-0.98,8.98-0.1,13.48c0.46,2.35,0.96,4.69,1.47,7.03c0.2,0.91,0.45,1.81,0.66,2.66c0.91,0.03,1.18-0.42,1.26-1.02
			c0.16-1.18,0.38-2.35,0.43-3.54c0.09-2.4,0.18-4.81,0.1-7.21c-0.06-1.7-0.43-3.39-0.64-5.09c-0.24-1.99-0.41-4-0.71-5.99
			C120.85,28.95,120.48,27.77,120.2,26.58z M113.18,56.48c-0.06-0.2-0.08-0.37-0.15-0.51c-0.21-0.42-0.41-0.85-0.65-1.25
			c-2.44-3.99-4.94-7.95-8.1-11.42c-1-1.1-2.07-2.16-3.21-3.12c-0.94-0.8-1.56-0.49-1.84,0.71c-0.49,2.05,0.16,3.85,1.34,5.45
			c2.94,3.99,6.75,7.09,10.5,10.25C111.68,57.1,112.47,56.88,113.18,56.48z M110.15,58.05c-0.64-0.79-1.17-1.56-1.82-2.22
			c-2.38-2.44-4.74-4.89-7.21-7.23c-1.07-1.01-2.35-1.83-3.62-2.6c-1.14-0.69-1.71-0.37-2.11,0.93c-0.51,1.65,0.05,3.39,1.76,4.54
			c3.33,2.23,6.72,4.37,10.13,6.48C108.06,58.44,109.01,58.72,110.15,58.05z M127.52,29.11c-0.08-0.05-0.17-0.09-0.25-0.14
			c-0.51,0.86-1.09,1.7-1.53,2.59c-1.83,3.66-2.25,7.65-2.49,11.65c-0.16,2.71-0.15,5.43-0.15,8.14c0,0.83,0.23,1.65,0.36,2.48
			c0.13,0.02,0.26,0.03,0.39,0.05c0.31-0.8,0.65-1.59,0.91-2.41c0.85-2.71,1.67-5.42,1.91-8.27c0.18-2.09,0.32-4.19,0.61-6.27
			C127.64,34.33,127.86,31.74,127.52,29.11z M94.14,51.13c-1.1-0.02-1.84,0.68-1.89,1.51c-0.09,1.51,0.86,2.39,2.03,2.95
			c3.44,1.65,6.93,3.21,10.41,4.77c0.47,0.21,1.01,0.31,1.53,0.35c0.26,0.02,0.61-0.12,0.78-0.32c0.1-0.11-0.01-0.52-0.15-0.7
			c-0.31-0.42-0.65-0.84-1.06-1.16c-0.82-0.65-1.69-1.26-2.56-1.84c-2.31-1.56-4.62-3.13-6.97-4.63
			C95.55,51.6,94.68,51.36,94.14,51.13z"/>
		<path d="M62.6,41.9c-0.92-1.02-1.84-2.06-2.78-3.07c-0.47-0.51-0.96-1-1.49-1.44c-0.19-0.16-0.59-0.28-0.78-0.18
			c-0.2,0.1-0.41,0.5-0.36,0.72c0.24,1.12,0.42,2.29,0.89,3.32c1.3,2.83,3.04,5.39,5.06,7.76c0.95,1.11,1.84,2.28,2.76,3.42
			c0.06-0.06,0.11-0.12,0.17-0.18c-0.75-0.59-1.6-1.1-2.24-1.8c-1.21-1.29-2.25-2.74-3.46-4.03c-2.61-2.78-4.35-6.13-6.01-9.49
			c-0.99-2-1.5-4.25-2.12-6.42c-0.18-0.62-0.03-1.34-0.03-2.01c0.11-0.05,0.23-0.1,0.34-0.16c0.53,0.4,1.15,0.73,1.59,1.22
			c3.08,3.49,5.59,7.39,8.14,11.27c0.19,0.29,0.32,0.62,0.48,0.94C62.7,41.82,62.65,41.86,62.6,41.9z"/>
		<path d="M57.96,52.03c-1.57-0.57-2.84-1.6-3.96-2.77c-3.29-3.41-6.51-6.9-8.56-11.25c-0.43-0.92-0.69-1.91-1-2.88
			c-0.07-0.23-0.05-0.69,0.05-0.73c0.24-0.1,0.63-0.11,0.83,0.03c0.93,0.64,1.86,1.3,2.72,2.03c1.65,1.4,3.27,2.83,4.87,4.28
			c0.67,0.61,1.25,1.31,1.75,2.13c-0.85-0.55-1.68-1.13-2.55-1.65c-0.54-0.32-1.11-0.62-1.7-0.83c-0.65-0.23-0.92,0.09-0.74,0.75
			c0.58,2.25,2.01,3.99,3.47,5.69C54.67,48.6,56.32,50.28,57.96,52.03z"/>
		<path d="M71.92,51.28c-2.56-4.04-5.25-8.04-5.73-12.96c-0.18-1.84-0.53-3.77,0.78-5.57c2.25,4.03,3.4,8.45,5.38,12.52
			c-0.07,0.03-0.14,0.07-0.21,0.1c-0.88-1.64-1.75-3.29-2.63-4.93c-0.34-0.63-0.67-1.27-1.06-1.87c-0.16-0.24-0.48-0.37-0.73-0.55
			c-0.13,0.28-0.36,0.56-0.38,0.85c-0.15,2.1,0.4,4.06,1.33,5.91c0.98,1.95,1.99,3.88,2.98,5.83
			C71.75,50.84,71.83,51.06,71.92,51.28z"/>
		<path d="M73.55,58.36c-2-1.21-4-2.43-6-3.64c0.05-0.09,0.11-0.18,0.16-0.27c2.01,1.2,4.01,2.4,6.02,3.61
			C73.67,58.16,73.61,58.26,73.55,58.36z"/>
		<path d="M70.05,60.07c-0.72-0.2-1.44-0.4-2.16-0.59c0.02-0.07,0.04-0.15,0.06-0.22c0.73,0.19,1.47,0.38,2.2,0.56
			C70.12,59.9,70.09,59.99,70.05,60.07z"/>
		<path class="st0" d="M65.42,73.65c2.35-0.13,4.69-0.27,7.04-0.37c0.46-0.02,0.95,0.05,1.38,0.19c0.68,0.23,0.75,0.58,0.24,1.09
			c-1.09,1.08-2.25,1.94-3.87,2.21c-2.39,0.39-4.73,1.12-7.12,1.51c-2.94,0.48-5.88,0.44-8.4-1.51c-0.54-0.42-0.93-1.06-1.29-1.66
			c-0.29-0.48-0.03-0.88,0.5-0.97c0.87-0.14,1.75-0.3,2.63-0.31c2.96-0.04,5.92-0.01,8.88-0.01C65.42,73.76,65.42,73.71,65.42,73.65
			z"/>
		<path class="st0" d="M62.98,82.57c-1.51-0.04-2.63-0.39-3.61-1.11c-0.24-0.17-0.45-0.42-0.59-0.67c-0.49-0.87-0.38-1.18,0.61-1.37
			c1.46-0.27,2.95-0.39,4.42-0.64c2.2-0.38,4.39-0.81,6.59-1.21c0.29-0.05,0.6-0.07,0.89-0.03c0.44,0.06,0.67,0.72,0.32,0.99
			C68.99,80.64,66.11,82.19,62.98,82.57z"/>
		<path class="st0" d="M112.55,28.69c0.63,1.58,1.33,3.13,1.88,4.73c1.07,3.16,2.24,6.3,3.02,9.53c0.8,3.28,1.23,6.66,1.73,10.01
			c0.09,0.61-0.28,1.29-0.43,1.93c-0.11,0.04-0.21,0.08-0.32,0.12c-0.29-0.34-0.68-0.64-0.87-1.04c-1.29-2.77-2.49-5.59-3.82-8.34
			c-1.25-2.58-2.18-5.24-2.57-8.07c-0.33-2.44-0.58-4.9,0.27-7.3c0.2-0.56,0.52-1.07,0.79-1.6
			C112.32,28.67,112.43,28.68,112.55,28.69z"/>
		<path class="st0" d="M105.3,33.24c1.02,1.46,1.92,2.68,2.74,3.95c3.15,4.84,5.71,9.97,7.67,15.4c0.25,0.7,0.51,1.41,0.61,2.14
			c0.06,0.41-0.08,1.02-0.36,1.25c-0.41,0.33-0.96,0.08-1.29-0.35c-1.08-1.4-2.15-2.82-3.2-4.24c-1.01-1.36-1.98-2.74-2.99-4.09
			c-2.06-2.77-3.54-5.81-4.13-9.21c-0.2-1.14-0.01-2.36,0.11-3.53C104.51,34.17,104.92,33.82,105.3,33.24z"/>
		<path class="st0" d="M120.2,26.58c0.28,1.19,0.64,2.37,0.82,3.58c0.3,1.99,0.47,3.99,0.71,5.99c0.21,1.7,0.58,3.39,0.64,5.09
			c0.09,2.4,0,4.81-0.1,7.21c-0.05,1.18-0.27,2.36-0.43,3.54c-0.08,0.6-0.35,1.05-1.26,1.02c-0.21-0.85-0.47-1.75-0.66-2.66
			c-0.5-2.34-1.01-4.68-1.47-7.03c-0.88-4.5-1.02-9,0.1-13.48c0.28-1.12,0.77-2.19,1.17-3.29C119.89,26.56,120.05,26.57,120.2,26.58
			z"/>
		<path class="st0" d="M113.18,56.48c-0.71,0.39-1.49,0.62-2.1,0.11c-3.75-3.16-7.57-6.26-10.5-10.25c-1.18-1.6-1.83-3.4-1.34-5.45
			c0.29-1.2,0.9-1.51,1.84-0.71c1.14,0.96,2.2,2.02,3.21,3.12c3.16,3.47,5.66,7.43,8.1,11.42c0.24,0.4,0.45,0.83,0.65,1.25
			C113.1,56.11,113.12,56.28,113.18,56.48z"/>
		<path class="st0" d="M110.15,58.05c-1.14,0.67-2.09,0.38-2.87-0.1c-3.41-2.11-6.8-4.25-10.13-6.48c-1.71-1.14-2.28-2.88-1.76-4.54
			c0.41-1.3,0.98-1.62,2.11-0.93c1.27,0.77,2.55,1.59,3.62,2.6c2.47,2.34,4.84,4.79,7.21,7.23
			C108.98,56.49,109.51,57.26,110.15,58.05z"/>
		<path class="st0" d="M127.52,29.11c0.34,2.62,0.12,5.22-0.25,7.83c-0.29,2.08-0.43,4.18-0.61,6.27c-0.24,2.85-1.06,5.56-1.91,8.27
			c-0.26,0.82-0.6,1.61-0.91,2.41c-0.13-0.02-0.26-0.03-0.39-0.05c-0.13-0.83-0.36-1.65-0.36-2.48c0-2.71-0.02-5.43,0.15-8.14
			c0.24-4,0.66-7.98,2.49-11.65c0.45-0.9,1.02-1.73,1.53-2.59C127.36,29.02,127.44,29.07,127.52,29.11z"/>
		<path class="st0" d="M94.14,51.13c0.53,0.23,1.4,0.47,2.13,0.94c2.35,1.5,4.66,3.07,6.97,4.63c0.87,0.59,1.73,1.19,2.56,1.84
			c0.41,0.32,0.75,0.74,1.06,1.16c0.14,0.18,0.24,0.59,0.15,0.7c-0.17,0.19-0.52,0.34-0.78,0.32c-0.52-0.05-1.06-0.14-1.53-0.35
			c-3.48-1.56-6.96-3.13-10.41-4.77c-1.18-0.56-2.13-1.44-2.03-2.95C92.31,51.81,93.05,51.1,94.14,51.13z"/>
	</g>
</g>
</svg>
